<svg width="96" height="96" viewBox="0 0 96 96" fill="none" xmlns="http://www.w3.org/2000/svg" role="img" aria-labelledby="title desc">
  <title id="title">NapGo icon</title>
  <desc id="desc">Minimal black and blue icon of a person napping while traveling.</desc>
  <rect x="10" y="52" width="66" height="14" rx="7" fill="#0F172A"/>
  <path d="M18 66H66C72.5 66 78 71.5 78 78V82H26C21.6 82 18 78.4 18 74V66Z" fill="#2563EB"/>
  <circle cx="35" cy="38" r="10" fill="#0F172A"/>
  <path d="M43 45C48.5 44 53.6 46.3 56.5 50.7L60 56H33C29.7 56 27 53.3 27 50V47.8C31.5 48.9 37.7 47 43 45Z" fill="#0F172A"/>
  <path d="M55 33C63 33 69.5 39.5 69.5 47.5V56H58.5V47.5C58.5 45.6 57 44 55 44H48.5C47.1 44 46 42.9 46 41.5V35.5C46 34.1 47.1 33 48.5 33H55Z" fill="#38BDF8"/>
  <path d="M14 47H24" stroke="#2563EB" stroke-width="5" stroke-linecap="round"/>
  <path d="M9 36H22" stroke="#38BDF8" stroke-width="5" stroke-linecap="round"/>
  <path d="M70 26H84" stroke="#2563EB" stroke-width="5" stroke-linecap="round"/>
  <path d="M75 38H88" stroke="#38BDF8" stroke-width="5" stroke-linecap="round"/>
</svg>
